<svg xmlns="http://www.w3.org/2000/svg" viewBox="0 0 960 960" fill="currentcolor" style="fill-rule:evenodd;clip-rule:evenodd;stroke-linejoin:round;stroke-miterlimit:2"><path d="M239.5-276.5c34.667-25.667 72.083-45.667 112.25-60C391.917-350.833 434.667-358 480-358s88.083 7.167 128.25 21.5 77.583 34.333 112.25 60c24.333-28.333 42.833-59.63 55.5-93.89 12.667-34.253 19-70.813 19-109.68 0-87.62-30.583-162.013-91.75-223.18S567.667-795 480-795s-162.083 30.583-223.25 91.75S165-567.69 165-480.07c0 38.867 6.333 75.427 19 109.68 12.667 34.26 31.167 65.557 55.5 93.89ZM480.11-442c-38.74 0-71.443-13.297-98.11-39.89s-40-59.26-40-98 13.297-71.443 39.89-98.11 59.26-40 98-40 71.443 13.297 98.11 39.89 40 59.26 40 98-13.297 71.443-39.89 98.11-59.26 40-98 40ZM480-90c-53.94 0-104.63-10.253-152.07-30.76-47.433-20.513-88.697-48.347-123.79-83.5-35.093-35.16-62.89-76.437-83.39-123.83C100.25-375.477 90-426.113 90-480c0-53.94 10.253-104.63 30.76-152.07 20.513-47.433 48.347-88.697 83.5-123.79 35.16-35.093 76.437-62.89 123.83-83.39C375.477-859.75 426.113-870 480-870c53.94 0 104.63 10.253 152.07 30.76 47.433 20.513 88.697 48.347 123.79 83.5 35.093 35.16 62.89 76.437 83.39 123.83C859.75-584.523 870-533.887 870-480c0 53.94-10.253 104.63-30.76 152.07-20.513 47.433-48.347 88.697-83.5 123.79-35.16 35.093-76.437 62.89-123.83 83.39C584.523-100.25 533.887-90 480-90Zm0-75c34.667 0 67.25-5 97.75-15S637-204.667 664-224c-27-19-55.75-33.583-86.25-43.75-30.5-10.167-63.063-15.25-97.69-15.25-34.627 0-67.293 5-98 15-30.707 10-59.393 24.667-86.06 44 27 19.333 55.75 34 86.25 44s63.083 15 97.75 15Zm0-352c17.667 0 32.583-6.083 44.75-18.25C536.917-547.417 543-562.333 543-580s-6.083-32.583-18.25-44.75C512.583-636.917 497.667-643 480-643s-32.583 6.083-44.75 18.25C423.083-612.583 417-597.667 417-580s6.083 32.583 18.25 44.75C447.417-523.083 462.333-517 480-517Z" style="fill-rule:nonzero" transform="translate(-110.769 1070.77) scale(1.23077)"/></svg>