<svg xmlns="http://www.w3.org/2000/svg" viewBox="0 -960 960 960" fill="currentcolor"><path d="m645-217.5-47 47q-16.5 16.5-40.25 17t-41.25-17Q500-187 500-211.25T516.5-252l47-47q-4.5-11-6.5-23t-2-24.5q0-57.5 40-97.5t97.5-40q8.5 0 16.75.5t16.25 3q10.5 4 13 15t-5.5 19l-42 42q-12 12-12.25 29.75T691-344.5q12.5 12.5 29.75 12.5t29.75-12.5l42-42q8-8 19.25-5.5t14.75 13q2.5 8 3 16t.5 16.5q0 57.5-40 97.5t-97.5 40q-13 0-24.75-2T645-217.5ZM480-755q-114.5 0-194.75 80.25T205-480q0 73 34 133.5t91 97v-78q0-15.5 11-26.5t26.5-11q15.5 0 26.5 11t11 26.5v160q0 15.5-11 26.5t-26.5 11h-160q-15.5 0-26.5-11t-11-26.5q0-15.5 11-26.5t26.5-11H264q-61.5-48.5-97.75-119.75T130-480q0-73 27.5-136.5t75-111q47.5-47.5 111.25-75T480-830q110 0 197.75 61T804.5-612q5.5 15 0 29.25T784-563q-15 5.5-29.5 0t-20-20.5q-30.5-76-99-123.75T480-755Z"/></svg>