<svg viewBox="0 0 24 24" xmlns="http://www.w3.org/2000/svg"><linearGradient id="historyReceive" x1="16.246" x2="9.2115" y1="8.3159" y2="20.5" gradientTransform="matrix(-1 0 0 1 24 -2)" gradientUnits="userSpaceOnUse"><stop stop-color="#3BF0E4" offset=".1"/><stop stop-color="#BCA1F7" offset=".9"/></linearGradient><path class="st0" d="m17.1 15.3-4.5 4.5c-0.3 0.3-0.7 0.3-1 0.1l-4.6-4.6c-0.3-0.3-0.3-0.8 0-1.1s0.7-0.3 1-0.1l3.3 3.3v-12.7c0-0.4 0.3-0.7 0.6-0.7h0.1c0.4 0 0.7 0.3 0.7 0.6v12.8l3.3-3.2c0.3-0.3 0.7-0.3 1-0.1l0.1 0.1c0.2 0.3 0.3 0.7 0 1.1l-4.5 4.5 4.5-4.5z" style="fill: url(#historyReceive);"/></svg>